<svg width="250" height="270" viewBox="0 0 250 270" fill="none" xmlns="http://www.w3.org/2000/svg">
<mask id="mask0_160_10" style="mask-type:luminance" maskUnits="userSpaceOnUse" x="0" y="0" width="250" height="270">
<path d="M250 0.5H0V269.5H250V0.5Z" fill="white"/>
</mask>
<g mask="url(#mask0_160_10)">
<path d="M49.7695 17.6881H200.076C199.728 6.69689 193.082 0.5 181.679 0.5H68.1665C56.7643 0.5 50.1176 6.69689 49.7695 17.6881Z" fill="white" fill-opacity="0.7"/>
<path d="M24.8311 53.5305C29.1967 52.7691 33.8583 52.3809 38.8005 52.3809H211.199C216.082 52.3809 220.692 52.7632 225.014 53.5131C223.676 40.3479 215.063 33.0625 200.699 33.0625H49.1473C34.7769 33.0625 26.1633 40.3544 24.8311 53.5305Z" fill="white" fill-opacity="0.7"/>
<path d="M38.801 268.91H211.199C237.066 268.91 250 256.28 250 230.717V108.989C250 83.5782 237.066 70.7969 211.199 70.7969H38.801C12.7816 70.7969 0 83.4261 0 108.989V230.717C0 256.28 12.7816 268.91 38.801 268.91ZM39.1055 246.999C28.1497 246.999 21.9112 241.064 21.9112 229.5V110.206C21.9112 98.6421 28.1497 92.7079 39.1055 92.7079H210.895C221.85 92.7079 228.089 98.6421 228.089 110.206V229.5C228.089 241.064 221.85 246.999 210.895 246.999H39.1055Z" fill="white" fill-opacity="0.7"/>
<path d="M124.784 211.928C125.853 211.928 127.397 211.215 128.467 210.503C155.135 193.635 171.528 173.915 171.528 153.781C171.528 137.031 160.005 125.152 145.216 125.152C135.891 125.152 129.12 130.26 124.784 137.982C120.508 130.32 113.677 125.152 104.352 125.152C89.5626 125.152 78.04 137.031 78.04 153.781C78.04 173.915 94.433 193.635 121.102 210.503C122.171 211.215 123.774 211.928 124.784 211.928Z" fill="white" fill-opacity="0.7"/>
</g>
</svg>
