<svg width="1023" height="1018" viewBox="0 0 1023 1018" fill="none" xmlns="http://www.w3.org/2000/svg">
<path d="M427.102 47.0748C389.341 -15.6915 295.419 -15.6916 257.657 47.0747L107.25 297.073H577.5L492.581 155.923C492.408 155.628 492.233 155.334 492.056 155.039L427.102 47.0748Z" fill="#FEAD38"/>
<path d="M703.148 967.926C740.909 1030.69 834.831 1030.69 872.592 967.926L1023 717.927L552.75 717.927L637.669 859.078C637.842 859.373 638.017 859.667 638.194 859.961L703.148 967.926Z" fill="#FEAD38"/>
<path d="M243.075 865.931C207.612 930.024 254.573 1011.38 327.798 1012.71L619.453 1018L384.328 610.651L304.578 754.786C304.409 755.084 304.242 755.383 304.076 755.683L243.075 865.931Z" fill="#FEAD38"/>
<path d="M98.6793 393.195C24.0312 394.54 -23.8427 476.948 12.3098 541.868L156.304 800.448L396 387.846L228.13 390.869C227.781 390.872 227.432 390.877 227.082 390.883L98.6793 393.195Z" fill="#FEAD38"/>
<path d="M887.197 150.95C922.595 87.328 875.72 6.56824 802.628 5.25073L511.5 0L746.199 404.35L825.805 261.276C825.974 260.981 826.141 260.684 826.307 260.386L887.197 150.95Z" fill="#FEAD38"/>
</svg>
