<svg width="204" height="51" viewBox="0 0 204 51" fill="none" xmlns="http://www.w3.org/2000/svg">
<g filter="url(#filter0_d_28_142)">
<rect x="0.5" y="0.507599" width="203" height="50" rx="25" fill="url(#paint0_linear_28_142)"/>
<path d="M56.4091 22.6638C56.3097 22.3182 56.17 22.0128 55.9901 21.7477C55.8101 21.4778 55.59 21.2505 55.3295 21.0658C55.0739 20.8764 54.7803 20.732 54.4489 20.6326C54.1222 20.5332 53.7599 20.4835 53.3622 20.4835C52.6188 20.4835 51.9654 20.6681 51.402 21.0374C50.8433 21.4067 50.4077 21.9442 50.0952 22.6496C49.7827 23.3504 49.6264 24.2074 49.6264 25.2207C49.6264 26.2339 49.7803 27.0957 50.0881 27.8059C50.3958 28.5161 50.8314 29.0583 51.3949 29.4323C51.9583 29.8016 52.6236 29.9863 53.3906 29.9863C54.0866 29.9863 54.6809 29.8632 55.1733 29.617C55.6705 29.366 56.0492 29.0133 56.3097 28.5587C56.5748 28.1042 56.7074 27.5668 56.7074 26.9465L57.3324 27.0388H53.5824V24.7235H59.669V26.5559C59.669 27.8343 59.3991 28.9328 58.8594 29.8513C58.3196 30.7652 57.5762 31.4707 56.6293 31.9678C55.6823 32.4603 54.598 32.7065 53.3764 32.7065C52.0128 32.7065 50.8149 32.4058 49.7827 31.8045C48.7505 31.1984 47.9455 30.339 47.3679 29.2263C46.795 28.1089 46.5085 26.7832 46.5085 25.2491C46.5085 24.0701 46.679 23.019 47.0199 22.0957C47.3655 21.1676 47.8485 20.3817 48.4688 19.7377C49.089 19.0938 49.8111 18.6037 50.6349 18.2675C51.4588 17.9314 52.3513 17.7633 53.3125 17.7633C54.1364 17.7633 54.9034 17.884 55.6136 18.1255C56.3239 18.3622 56.9536 18.6984 57.5028 19.134C58.0568 19.5696 58.509 20.0881 58.8594 20.6894C59.2098 21.286 59.4347 21.9442 59.5341 22.6638H56.4091ZM66.8938 32.7207C65.7717 32.7207 64.8058 32.4934 63.9961 32.0388C63.1912 31.5796 62.5709 30.9309 62.1353 30.0928C61.6997 29.25 61.4819 28.2533 61.4819 27.1028C61.4819 25.9806 61.6997 24.9958 62.1353 24.1482C62.5709 23.3007 63.1841 22.6402 63.9748 22.1667C64.7702 21.6932 65.703 21.4565 66.7731 21.4565C67.4928 21.4565 68.1628 21.5725 68.783 21.8045C69.408 22.0317 69.9525 22.375 70.4165 22.8343C70.8853 23.2936 71.2499 23.8712 71.5103 24.5673C71.7707 25.2585 71.9009 26.0682 71.9009 26.9962V27.8272H62.6893V25.9522H69.0529C69.0529 25.5166 68.9582 25.1307 68.7688 24.7945C68.5794 24.4584 68.3166 24.1956 67.9805 24.0062C67.649 23.812 67.2631 23.715 66.8228 23.715C66.3635 23.715 65.9563 23.8215 65.6012 24.0346C65.2508 24.2429 64.9762 24.5246 64.7773 24.8798C64.5785 25.2301 64.4767 25.6208 64.4719 26.0516V27.8343C64.4719 28.3741 64.5714 28.8405 64.7702 29.2335C64.9738 29.6264 65.2603 29.9295 65.6296 30.1425C65.9989 30.3556 66.4369 30.4621 66.9435 30.4621C67.2797 30.4621 67.5875 30.4148 67.8668 30.3201C68.1462 30.2254 68.3853 30.0834 68.5842 29.894C68.783 29.7046 68.9345 29.4726 69.0387 29.1979L71.837 29.3826C71.695 30.0549 71.4038 30.6421 70.9634 31.144C70.5278 31.6411 69.9644 32.0294 69.2731 32.3087C68.5865 32.5834 67.7934 32.7207 66.8938 32.7207ZM79.6779 21.5985V23.8712H73.1083V21.5985H79.6779ZM74.5998 18.9849H77.6254V29.1553C77.6254 29.4347 77.668 29.6525 77.7532 29.8087C77.8384 29.9603 77.9568 30.0668 78.1083 30.1283C78.2646 30.1899 78.4445 30.2207 78.6481 30.2207C78.7901 30.2207 78.9322 30.2088 79.0742 30.1852C79.2163 30.1567 79.3252 30.1354 79.4009 30.1212L79.8768 32.3727C79.7253 32.42 79.5122 32.4745 79.2376 32.536C78.9629 32.6023 78.6291 32.6425 78.2362 32.6567C77.507 32.6852 76.8678 32.5881 76.3185 32.3656C75.774 32.143 75.3503 31.7974 75.0472 31.3286C74.7442 30.8599 74.5951 30.268 74.5998 29.5531V18.9849ZM95.3544 24.7093L92.5845 24.8798C92.5372 24.643 92.4354 24.4299 92.2791 24.2406C92.1229 24.0464 91.9169 23.8925 91.6612 23.7789C91.4103 23.6605 91.1096 23.6013 90.7592 23.6013C90.2905 23.6013 89.8951 23.7008 89.5732 23.8996C89.2512 24.0938 89.0902 24.3542 89.0902 24.6809C89.0902 24.9413 89.1944 25.1615 89.4027 25.3414C89.611 25.5213 89.9685 25.6657 90.4751 25.7746L92.4496 26.1724C93.5102 26.3902 94.3009 26.7406 94.8217 27.2235C95.3426 27.7065 95.603 28.3409 95.603 29.1269C95.603 29.8419 95.3923 30.4692 94.9709 31.009C94.5542 31.5488 93.9813 31.9702 93.2521 32.2732C92.5277 32.5715 91.692 32.7207 90.745 32.7207C89.3009 32.7207 88.1503 32.42 87.2933 31.8187C86.4411 31.2126 85.9415 30.3888 85.7947 29.3471L88.7706 29.1908C88.8606 29.6312 89.0784 29.9674 89.424 30.1994C89.7696 30.4266 90.2124 30.5403 90.7521 30.5403C91.2824 30.5403 91.7086 30.4385 92.0305 30.2349C92.3572 30.0265 92.523 29.759 92.5277 29.4323C92.523 29.1577 92.407 28.9328 92.1797 28.7576C91.9524 28.5777 91.602 28.4404 91.1286 28.3457L89.2393 27.9692C88.174 27.7562 87.3809 27.3869 86.8601 26.8613C86.344 26.3357 86.0859 25.6657 86.0859 24.8513C86.0859 24.1506 86.2753 23.5469 86.6541 23.0403C87.0376 22.5336 87.575 22.143 88.2663 21.8684C88.9624 21.5938 89.7768 21.4565 90.7095 21.4565C92.0874 21.4565 93.1716 21.7477 93.9624 22.33C94.7578 22.9124 95.2218 23.7055 95.3544 24.7093ZM103.311 21.5985V23.8712H96.7411V21.5985H103.311ZM98.2326 18.9849H101.258V29.1553C101.258 29.4347 101.301 29.6525 101.386 29.8087C101.471 29.9603 101.59 30.0668 101.741 30.1283C101.897 30.1899 102.077 30.2207 102.281 30.2207C102.423 30.2207 102.565 30.2088 102.707 30.1852C102.849 30.1567 102.958 30.1354 103.034 30.1212L103.51 32.3727C103.358 32.42 103.145 32.4745 102.87 32.536C102.596 32.6023 102.262 32.6425 101.869 32.6567C101.14 32.6852 100.501 32.5881 99.9513 32.3656C99.4068 32.143 98.9831 31.7974 98.68 31.3286C98.377 30.8599 98.2279 30.268 98.2326 29.5531V18.9849ZM108.392 32.7136C107.696 32.7136 107.076 32.5928 106.532 32.3513C105.987 32.1051 105.556 31.7429 105.239 31.2647C104.926 30.7817 104.77 30.1804 104.77 29.4607C104.77 28.8547 104.882 28.3457 105.104 27.9337C105.327 27.5218 105.63 27.1904 106.013 26.9394C106.397 26.6885 106.832 26.4991 107.32 26.3712C107.812 26.2434 108.328 26.1534 108.868 26.1013C109.503 26.0351 110.014 25.9735 110.402 25.9167C110.791 25.8551 111.072 25.7652 111.248 25.6468C111.423 25.5284 111.51 25.3532 111.51 25.1212V25.0786C111.51 24.6288 111.368 24.2808 111.084 24.0346C110.805 23.7884 110.407 23.6653 109.891 23.6653C109.346 23.6653 108.913 23.786 108.591 24.0275C108.269 24.2642 108.056 24.5625 107.952 24.9224L105.154 24.6951C105.296 24.0322 105.575 23.4593 105.992 22.9763C106.408 22.4887 106.946 22.1146 107.604 21.8542C108.267 21.589 109.034 21.4565 109.905 21.4565C110.511 21.4565 111.091 21.5275 111.645 21.6695C112.204 21.8116 112.699 22.0317 113.13 22.33C113.565 22.6283 113.908 23.0119 114.159 23.4806C114.41 23.9446 114.536 24.501 114.536 25.1496V32.5076H111.667V30.9948H111.581C111.406 31.3357 111.172 31.6364 110.878 31.8968C110.585 32.1525 110.232 32.3537 109.82 32.5005C109.408 32.6425 108.932 32.7136 108.392 32.7136ZM109.259 30.6255C109.704 30.6255 110.097 30.5379 110.438 30.3627C110.779 30.1828 111.046 29.9413 111.24 29.6383C111.435 29.3353 111.532 28.992 111.532 28.6085V27.4508C111.437 27.5123 111.307 27.5692 111.141 27.6212C110.98 27.6686 110.798 27.7136 110.594 27.7562C110.391 27.7941 110.187 27.8296 109.983 27.8627C109.78 27.8911 109.595 27.9172 109.429 27.9408C109.074 27.9929 108.764 28.0758 108.499 28.1894C108.234 28.3031 108.028 28.4569 107.881 28.6511C107.734 28.8405 107.661 29.0772 107.661 29.3613C107.661 29.7732 107.81 30.0881 108.108 30.3059C108.411 30.519 108.795 30.6255 109.259 30.6255ZM116.883 32.5076V21.5985H119.816V23.5019H119.93C120.129 22.8248 120.463 22.3135 120.931 21.9678C121.4 21.6174 121.94 21.4423 122.551 21.4423C122.702 21.4423 122.866 21.4517 123.041 21.4707C123.216 21.4896 123.37 21.5156 123.502 21.5488V24.2335C123.36 24.1908 123.164 24.153 122.913 24.1198C122.662 24.0867 122.432 24.0701 122.224 24.0701C121.779 24.0701 121.381 24.1672 121.031 24.3613C120.685 24.5507 120.411 24.8158 120.207 25.1567C120.008 25.4977 119.909 25.8906 119.909 26.3357V32.5076H116.883ZM131.416 21.5985V23.8712H124.847V21.5985H131.416ZM126.338 18.9849H129.364V29.1553C129.364 29.4347 129.406 29.6525 129.491 29.8087C129.577 29.9603 129.695 30.0668 129.847 30.1283C130.003 30.1899 130.183 30.2207 130.386 30.2207C130.528 30.2207 130.67 30.2088 130.812 30.1852C130.955 30.1567 131.063 30.1354 131.139 30.1212L131.615 32.3727C131.464 32.42 131.25 32.4745 130.976 32.536C130.701 32.6023 130.367 32.6425 129.974 32.6567C129.245 32.6852 128.606 32.5881 128.057 32.3656C127.512 32.143 127.089 31.7974 126.786 31.3286C126.482 30.8599 126.333 30.268 126.338 29.5531V18.9849ZM138.241 32.7207C137.119 32.7207 136.153 32.4934 135.344 32.0388C134.539 31.5796 133.919 30.9309 133.483 30.0928C133.047 29.25 132.83 28.2533 132.83 27.1028C132.83 25.9806 133.047 24.9958 133.483 24.1482C133.919 23.3007 134.532 22.6402 135.322 22.1667C136.118 21.6932 137.051 21.4565 138.121 21.4565C138.84 21.4565 139.51 21.5725 140.131 21.8045C140.756 22.0317 141.3 22.375 141.764 22.8343C142.233 23.2936 142.598 23.8712 142.858 24.5673C143.118 25.2585 143.249 26.0682 143.249 26.9962V27.8272H134.037V25.9522H140.401C140.401 25.5166 140.306 25.1307 140.116 24.7945C139.927 24.4584 139.664 24.1956 139.328 24.0062C138.997 23.812 138.611 23.715 138.17 23.715C137.711 23.715 137.304 23.8215 136.949 24.0346C136.598 24.2429 136.324 24.5246 136.125 24.8798C135.926 25.2301 135.824 25.6208 135.82 26.0516V27.8343C135.82 28.3741 135.919 28.8405 136.118 29.2335C136.321 29.6264 136.608 29.9295 136.977 30.1425C137.347 30.3556 137.785 30.4621 138.291 30.4621C138.627 30.4621 138.935 30.4148 139.214 30.3201C139.494 30.2254 139.733 30.0834 139.932 29.894C140.131 29.7046 140.282 29.4726 140.386 29.1979L143.185 29.3826C143.043 30.0549 142.751 30.6421 142.311 31.144C141.875 31.6411 141.312 32.0294 140.621 32.3087C139.934 32.5834 139.141 32.7207 138.241 32.7207ZM149.243 32.6852C148.414 32.6852 147.664 32.4721 146.991 32.046C146.324 31.6151 145.794 30.983 145.401 30.1496C145.012 29.3116 144.818 28.2841 144.818 27.0673C144.818 25.8173 145.019 24.778 145.422 23.9494C145.824 23.116 146.359 22.4934 147.027 22.0815C147.699 21.6648 148.436 21.4565 149.236 21.4565C149.847 21.4565 150.356 21.5606 150.763 21.769C151.175 21.9726 151.506 22.2282 151.757 22.536C152.013 22.839 152.207 23.1373 152.339 23.4309H152.432V17.9621H155.45V32.5076H152.467V30.7604H152.339C152.197 31.0635 151.996 31.3641 151.736 31.6624C151.48 31.956 151.146 32.1998 150.734 32.394C150.327 32.5881 149.83 32.6852 149.243 32.6852ZM150.202 30.2775C150.689 30.2775 151.101 30.1449 151.438 29.8798C151.778 29.6099 152.039 29.2335 152.219 28.7505C152.403 28.2675 152.496 27.7017 152.496 27.0531C152.496 26.4044 152.406 25.8409 152.226 25.3627C152.046 24.8845 151.786 24.5152 151.445 24.2548C151.104 23.9943 150.689 23.8641 150.202 23.8641C149.705 23.8641 149.286 23.9991 148.945 24.269C148.604 24.5388 148.346 24.9129 148.17 25.3911C147.995 25.8693 147.908 26.4233 147.908 27.0531C147.908 27.6875 147.995 28.2486 148.17 28.7363C148.35 29.2192 148.608 29.598 148.945 29.8727C149.286 30.1425 149.705 30.2775 150.202 30.2775ZM161.553 17.9621L161.276 28.1468H158.676L158.392 17.9621H161.553ZM159.976 32.6923C159.507 32.6923 159.105 32.5265 158.769 32.1951C158.433 31.8589 158.267 31.4565 158.272 30.9877C158.267 30.5237 158.433 30.126 158.769 29.7945C159.105 29.4631 159.507 29.2974 159.976 29.2974C160.426 29.2974 160.821 29.4631 161.162 29.7945C161.503 30.126 161.676 30.5237 161.681 30.9877C161.676 31.3002 161.593 31.5867 161.432 31.8471C161.276 32.1028 161.07 32.3087 160.814 32.465C160.559 32.6165 160.279 32.6923 159.976 32.6923Z" fill="#1F1F1F"/>
</g>
<defs>
<filter id="filter0_d_28_142" x="-3.5" y="0.507599" width="211" height="58" filterUnits="userSpaceOnUse" color-interpolation-filters="sRGB">
<feFlood flood-opacity="0" result="BackgroundImageFix"/>
<feColorMatrix in="SourceAlpha" type="matrix" values="0 0 0 0 0 0 0 0 0 0 0 0 0 0 0 0 0 0 127 0" result="hardAlpha"/>
<feOffset dy="4"/>
<feGaussianBlur stdDeviation="2"/>
<feComposite in2="hardAlpha" operator="out"/>
<feColorMatrix type="matrix" values="0 0 0 0 0 0 0 0 0 0 0 0 0 0 0 0 0 0 0.25 0"/>
<feBlend mode="normal" in2="BackgroundImageFix" result="effect1_dropShadow_28_142"/>
<feBlend mode="normal" in="SourceGraphic" in2="effect1_dropShadow_28_142" result="shape"/>
</filter>
<linearGradient id="paint0_linear_28_142" x1="0.5" y1="25.5076" x2="203.5" y2="25.5076" gradientUnits="userSpaceOnUse">
<stop stop-color="#FEAD38"/>
<stop offset="1" stop-color="#FFF7E9"/>
</linearGradient>
</defs>
</svg>
