<svg width="211" height="58" viewBox="0 0 211 58" fill="none" xmlns="http://www.w3.org/2000/svg">
<g filter="url(#filter0_d_28_130)">
<rect x="4" width="203" height="50" rx="25" fill="#FEAD38"/>
<path d="M59.9091 22.1562C59.8097 21.8106 59.67 21.5052 59.4901 21.2401C59.3101 20.9702 59.09 20.7429 58.8295 20.5582C58.5739 20.3688 58.2803 20.2244 57.9489 20.125C57.6222 20.0256 57.2599 19.9759 56.8622 19.9759C56.1188 19.9759 55.4654 20.1605 54.902 20.5298C54.3433 20.8991 53.9077 21.4366 53.5952 22.142C53.2827 22.8428 53.1264 23.6998 53.1264 24.7131C53.1264 25.7263 53.2803 26.5881 53.5881 27.2983C53.8958 28.0085 54.3314 28.5507 54.8949 28.9247C55.4583 29.294 56.1236 29.4787 56.8906 29.4787C57.5866 29.4787 58.1809 29.3556 58.6733 29.1094C59.1705 28.8584 59.5492 28.5057 59.8097 28.0511C60.0748 27.5966 60.2074 27.0592 60.2074 26.4389L60.8324 26.5312H57.0824V24.2159H63.169V26.0483C63.169 27.3267 62.8991 28.4252 62.3594 29.3438C61.8196 30.2576 61.0762 30.9631 60.1293 31.4602C59.1823 31.9527 58.098 32.1989 56.8764 32.1989C55.5128 32.1989 54.3149 31.8982 53.2827 31.2969C52.2505 30.6908 51.4455 29.8314 50.8679 28.7188C50.295 27.6013 50.0085 26.2756 50.0085 24.7415C50.0085 23.5625 50.179 22.5114 50.5199 21.5881C50.8655 20.66 51.3485 19.8741 51.9688 19.2301C52.589 18.5862 53.3111 18.0961 54.1349 17.7599C54.9588 17.4238 55.8513 17.2557 56.8125 17.2557C57.6364 17.2557 58.4034 17.3764 59.1136 17.6179C59.8239 17.8546 60.4536 18.1908 61.0028 18.6264C61.5568 19.062 62.009 19.5805 62.3594 20.1818C62.7098 20.7784 62.9347 21.4366 63.0341 22.1562H59.9091ZM70.3938 32.2131C69.2717 32.2131 68.3058 31.9858 67.4961 31.5312C66.6912 31.072 66.0709 30.4233 65.6353 29.5852C65.1997 28.7424 64.9819 27.7457 64.9819 26.5952C64.9819 25.473 65.1997 24.4882 65.6353 23.6406C66.0709 22.7931 66.6841 22.1326 67.4748 21.6591C68.2702 21.1856 69.203 20.9489 70.2731 20.9489C70.9928 20.9489 71.6628 21.0649 72.283 21.2969C72.908 21.5241 73.4525 21.8674 73.9165 22.3267C74.3853 22.786 74.7499 23.3636 75.0103 24.0597C75.2707 24.7509 75.4009 25.5606 75.4009 26.4886V27.3196H66.1893V25.4446H72.5529C72.5529 25.009 72.4582 24.6231 72.2688 24.2869C72.0794 23.9508 71.8166 23.688 71.4805 23.4986C71.149 23.3045 70.7631 23.2074 70.3228 23.2074C69.8635 23.2074 69.4563 23.3139 69.1012 23.527C68.7508 23.7353 68.4762 24.017 68.2773 24.3722C68.0785 24.7225 67.9767 25.1132 67.9719 25.544V27.3267C67.9719 27.8665 68.0714 28.3329 68.2702 28.7259C68.4738 29.1188 68.7603 29.4219 69.1296 29.6349C69.4989 29.848 69.9369 29.9545 70.4435 29.9545C70.7797 29.9545 71.0875 29.9072 71.3668 29.8125C71.6462 29.7178 71.8853 29.5758 72.0842 29.3864C72.283 29.197 72.4345 28.965 72.5387 28.6903L75.337 28.875C75.195 29.5473 74.9038 30.1345 74.4634 30.6364C74.0278 31.1335 73.4644 31.5218 72.7731 31.8011C72.0865 32.0758 71.2934 32.2131 70.3938 32.2131ZM83.1779 21.0909V23.3636H76.6083V21.0909H83.1779ZM78.0998 18.4773H81.1254V28.6477C81.1254 28.9271 81.168 29.1449 81.2532 29.3011C81.3384 29.4527 81.4568 29.5592 81.6083 29.6207C81.7646 29.6823 81.9445 29.7131 82.1481 29.7131C82.2901 29.7131 82.4322 29.7012 82.5742 29.6776C82.7163 29.6491 82.8252 29.6278 82.9009 29.6136L83.3768 31.8651C83.2253 31.9124 83.0122 31.9669 82.7376 32.0284C82.4629 32.0947 82.1291 32.1349 81.7362 32.1491C81.007 32.1776 80.3678 32.0805 79.8185 31.858C79.274 31.6354 78.8503 31.2898 78.5472 30.821C78.2442 30.3523 78.0951 29.7604 78.0998 29.0455V18.4773ZM98.8544 24.2017L96.0845 24.3722C96.0372 24.1354 95.9354 23.9223 95.7791 23.733C95.6229 23.5388 95.4169 23.3849 95.1612 23.2713C94.9103 23.1529 94.6096 23.0938 94.2592 23.0938C93.7905 23.0938 93.3951 23.1932 93.0732 23.392C92.7512 23.5862 92.5902 23.8466 92.5902 24.1733C92.5902 24.4337 92.6944 24.6539 92.9027 24.8338C93.111 25.0137 93.4685 25.1581 93.9751 25.267L95.9496 25.6648C97.0102 25.8826 97.8009 26.233 98.3217 26.7159C98.8426 27.1989 99.103 27.8333 99.103 28.6193C99.103 29.3343 98.8923 29.9616 98.4709 30.5014C98.0542 31.0412 97.4813 31.4626 96.7521 31.7656C96.0277 32.0639 95.192 32.2131 94.245 32.2131C92.8009 32.2131 91.6503 31.9124 90.7933 31.3111C89.9411 30.705 89.4415 29.8812 89.2947 28.8395L92.2706 28.6832C92.3606 29.1236 92.5784 29.4598 92.924 29.6918C93.2696 29.919 93.7124 30.0327 94.2521 30.0327C94.7824 30.0327 95.2086 29.9309 95.5305 29.7273C95.8572 29.5189 96.023 29.2514 96.0277 28.9247C96.023 28.6501 95.907 28.4252 95.6797 28.25C95.4524 28.0701 95.102 27.9328 94.6286 27.8381L92.7393 27.4616C91.674 27.2486 90.8809 26.8793 90.3601 26.3537C89.844 25.8281 89.5859 25.1581 89.5859 24.3438C89.5859 23.643 89.7753 23.0393 90.1541 22.5327C90.5376 22.026 91.075 21.6354 91.7663 21.3608C92.4624 21.0862 93.2768 20.9489 94.2095 20.9489C95.5874 20.9489 96.6716 21.2401 97.4624 21.8224C98.2578 22.4048 98.7218 23.1979 98.8544 24.2017ZM106.811 21.0909V23.3636H100.241V21.0909H106.811ZM101.733 18.4773H104.758V28.6477C104.758 28.9271 104.801 29.1449 104.886 29.3011C104.971 29.4527 105.09 29.5592 105.241 29.6207C105.397 29.6823 105.577 29.7131 105.781 29.7131C105.923 29.7131 106.065 29.7012 106.207 29.6776C106.349 29.6491 106.458 29.6278 106.534 29.6136L107.01 31.8651C106.858 31.9124 106.645 31.9669 106.37 32.0284C106.096 32.0947 105.762 32.1349 105.369 32.1491C104.64 32.1776 104.001 32.0805 103.451 31.858C102.907 31.6354 102.483 31.2898 102.18 30.821C101.877 30.3523 101.728 29.7604 101.733 29.0455V18.4773ZM111.892 32.206C111.196 32.206 110.576 32.0852 110.032 31.8438C109.487 31.5975 109.056 31.2353 108.739 30.7571C108.426 30.2741 108.27 29.6728 108.27 28.9531C108.27 28.3471 108.382 27.8381 108.604 27.4261C108.827 27.0142 109.13 26.6828 109.513 26.4318C109.897 26.1809 110.332 25.9915 110.82 25.8636C111.312 25.7358 111.828 25.6458 112.368 25.5938C113.003 25.5275 113.514 25.4659 113.902 25.4091C114.291 25.3475 114.572 25.2576 114.748 25.1392C114.923 25.0208 115.01 24.8456 115.01 24.6136V24.571C115.01 24.1212 114.868 23.7732 114.584 23.527C114.305 23.2808 113.907 23.1577 113.391 23.1577C112.846 23.1577 112.413 23.2784 112.091 23.5199C111.769 23.7566 111.556 24.0549 111.452 24.4148L108.654 24.1875C108.796 23.5246 109.075 22.9517 109.492 22.4688C109.908 21.9811 110.446 21.607 111.104 21.3466C111.767 21.0814 112.534 20.9489 113.405 20.9489C114.011 20.9489 114.591 21.0199 115.145 21.1619C115.704 21.304 116.199 21.5241 116.63 21.8224C117.065 22.1207 117.408 22.5043 117.659 22.973C117.91 23.437 118.036 23.9934 118.036 24.642V32H115.167V30.4872H115.081C114.906 30.8281 114.672 31.1288 114.378 31.3892C114.085 31.6449 113.732 31.8461 113.32 31.9929C112.908 32.1349 112.432 32.206 111.892 32.206ZM112.759 30.1179C113.204 30.1179 113.597 30.0303 113.938 29.8551C114.279 29.6752 114.546 29.4337 114.74 29.1307C114.935 28.8277 115.032 28.4844 115.032 28.1009V26.9432C114.937 27.0047 114.807 27.0616 114.641 27.1136C114.48 27.161 114.298 27.206 114.094 27.2486C113.891 27.2865 113.687 27.322 113.483 27.3551C113.28 27.3835 113.095 27.4096 112.929 27.4332C112.574 27.4853 112.264 27.5682 111.999 27.6818C111.734 27.7955 111.528 27.9493 111.381 28.1435C111.234 28.3329 111.161 28.5696 111.161 28.8537C111.161 29.2656 111.31 29.5805 111.608 29.7983C111.911 30.0114 112.295 30.1179 112.759 30.1179ZM120.383 32V21.0909H123.316V22.9943H123.43C123.629 22.3172 123.963 21.8059 124.431 21.4602C124.9 21.1098 125.44 20.9347 126.051 20.9347C126.202 20.9347 126.366 20.9441 126.541 20.9631C126.716 20.982 126.87 21.008 127.002 21.0412V23.7259C126.86 23.6832 126.664 23.6454 126.413 23.6122C126.162 23.5791 125.932 23.5625 125.724 23.5625C125.279 23.5625 124.881 23.6596 124.531 23.8537C124.185 24.0431 123.911 24.3082 123.707 24.6491C123.508 24.9901 123.409 25.383 123.409 25.8281V32H120.383ZM134.916 21.0909V23.3636H128.347V21.0909H134.916ZM129.838 18.4773H132.864V28.6477C132.864 28.9271 132.906 29.1449 132.991 29.3011C133.077 29.4527 133.195 29.5592 133.347 29.6207C133.503 29.6823 133.683 29.7131 133.886 29.7131C134.028 29.7131 134.17 29.7012 134.312 29.6776C134.455 29.6491 134.563 29.6278 134.639 29.6136L135.115 31.8651C134.964 31.9124 134.75 31.9669 134.476 32.0284C134.201 32.0947 133.867 32.1349 133.474 32.1491C132.745 32.1776 132.106 32.0805 131.557 31.858C131.012 31.6354 130.589 31.2898 130.286 30.821C129.982 30.3523 129.833 29.7604 129.838 29.0455V18.4773ZM141.741 32.2131C140.619 32.2131 139.653 31.9858 138.844 31.5312C138.039 31.072 137.419 30.4233 136.983 29.5852C136.547 28.7424 136.33 27.7457 136.33 26.5952C136.33 25.473 136.547 24.4882 136.983 23.6406C137.419 22.7931 138.032 22.1326 138.822 21.6591C139.618 21.1856 140.551 20.9489 141.621 20.9489C142.34 20.9489 143.01 21.0649 143.631 21.2969C144.256 21.5241 144.8 21.8674 145.264 22.3267C145.733 22.786 146.098 23.3636 146.358 24.0597C146.618 24.7509 146.749 25.5606 146.749 26.4886V27.3196H137.537V25.4446H143.901C143.901 25.009 143.806 24.6231 143.616 24.2869C143.427 23.9508 143.164 23.688 142.828 23.4986C142.497 23.3045 142.111 23.2074 141.67 23.2074C141.211 23.2074 140.804 23.3139 140.449 23.527C140.098 23.7353 139.824 24.017 139.625 24.3722C139.426 24.7225 139.324 25.1132 139.32 25.544V27.3267C139.32 27.8665 139.419 28.3329 139.618 28.7259C139.821 29.1188 140.108 29.4219 140.477 29.6349C140.847 29.848 141.285 29.9545 141.791 29.9545C142.127 29.9545 142.435 29.9072 142.714 29.8125C142.994 29.7178 143.233 29.5758 143.432 29.3864C143.631 29.197 143.782 28.965 143.886 28.6903L146.685 28.875C146.543 29.5473 146.251 30.1345 145.811 30.6364C145.375 31.1335 144.812 31.5218 144.121 31.8011C143.434 32.0758 142.641 32.2131 141.741 32.2131ZM152.743 32.1776C151.914 32.1776 151.164 31.9645 150.491 31.5384C149.824 31.1075 149.294 30.4754 148.901 29.642C148.512 28.804 148.318 27.7765 148.318 26.5597C148.318 25.3097 148.519 24.2704 148.922 23.4418C149.324 22.6084 149.859 21.9858 150.527 21.5739C151.199 21.1572 151.936 20.9489 152.736 20.9489C153.347 20.9489 153.856 21.053 154.263 21.2614C154.675 21.465 155.006 21.7206 155.257 22.0284C155.513 22.3314 155.707 22.6297 155.839 22.9233H155.932V17.4545H158.95V32H155.967V30.2528H155.839C155.697 30.5559 155.496 30.8565 155.236 31.1548C154.98 31.4484 154.646 31.6922 154.234 31.8864C153.827 32.0805 153.33 32.1776 152.743 32.1776ZM153.702 29.7699C154.189 29.7699 154.601 29.6373 154.938 29.3722C155.278 29.1023 155.539 28.7259 155.719 28.2429C155.903 27.7599 155.996 27.1941 155.996 26.5455C155.996 25.8968 155.906 25.3333 155.726 24.8551C155.546 24.3769 155.286 24.0076 154.945 23.7472C154.604 23.4867 154.189 23.3565 153.702 23.3565C153.205 23.3565 152.786 23.4915 152.445 23.7614C152.104 24.0312 151.846 24.4053 151.67 24.8835C151.495 25.3617 151.408 25.9157 151.408 26.5455C151.408 27.1799 151.495 27.741 151.67 28.2287C151.85 28.7116 152.108 29.0904 152.445 29.3651C152.786 29.6349 153.205 29.7699 153.702 29.7699ZM165.053 17.4545L164.776 27.6392H162.176L161.892 17.4545H165.053ZM163.476 32.1847C163.007 32.1847 162.605 32.0189 162.269 31.6875C161.933 31.3513 161.767 30.9489 161.772 30.4801C161.767 30.0161 161.933 29.6184 162.269 29.2869C162.605 28.9555 163.007 28.7898 163.476 28.7898C163.926 28.7898 164.321 28.9555 164.662 29.2869C165.003 29.6184 165.176 30.0161 165.181 30.4801C165.176 30.7926 165.093 31.0791 164.932 31.3395C164.776 31.5952 164.57 31.8011 164.314 31.9574C164.059 32.1089 163.779 32.1847 163.476 32.1847Z" fill="white"/>
</g>
<defs>
<filter id="filter0_d_28_130" x="0" y="0" width="211" height="58" filterUnits="userSpaceOnUse" color-interpolation-filters="sRGB">
<feFlood flood-opacity="0" result="BackgroundImageFix"/>
<feColorMatrix in="SourceAlpha" type="matrix" values="0 0 0 0 0 0 0 0 0 0 0 0 0 0 0 0 0 0 127 0" result="hardAlpha"/>
<feOffset dy="4"/>
<feGaussianBlur stdDeviation="2"/>
<feComposite in2="hardAlpha" operator="out"/>
<feColorMatrix type="matrix" values="0 0 0 0 0 0 0 0 0 0 0 0 0 0 0 0 0 0 0.25 0"/>
<feBlend mode="normal" in2="BackgroundImageFix" result="effect1_dropShadow_28_130"/>
<feBlend mode="normal" in="SourceGraphic" in2="effect1_dropShadow_28_130" result="shape"/>
</filter>
</defs>
</svg>
