<svg width="250" height="244" viewBox="0 0 250 244" fill="none" xmlns="http://www.w3.org/2000/svg">
<path d="M124.785 190.939C125.46 190.939 126.229 190.591 126.844 190.242C153.027 172.937 171.902 153.413 171.902 133.504C171.902 117.564 160.759 106.059 145.865 106.059C137.145 106.059 128.676 111.159 124.785 119.11C120.899 111.164 112.426 106.059 103.705 106.059C88.8115 106.059 77.6681 117.564 77.6681 133.504C77.6681 153.413 96.484 172.937 122.726 190.242C123.282 190.591 124.115 190.939 124.785 190.939Z" fill="white"/>
<path d="M49.0601 6.59211H200.929C199.88 2.64693 196.44 0 191.975 0H58.0147C53.5494 0 50.1098 2.64693 49.0601 6.59211Z" fill="white"/>
<path d="M26.7404 33.093C28.2224 33.0041 29.7312 32.9592 31.2659 32.9592H218.734C220.265 32.9592 221.771 33.0045 223.249 33.0942C222.216 28.7781 218.767 26.2208 213.714 26.2208H36.2751C31.2223 26.2208 27.7742 28.7776 26.7404 33.093Z" fill="white"/>
<path d="M31.2659 243.75H218.734C239.245 243.75 250 232.666 250 212.602V86.7853C250 66.5899 239.245 55.6371 218.734 55.6371H31.2659C10.7439 55.6371 0 66.296 0 86.7853V212.602C0 232.949 10.7439 243.75 31.2659 243.75ZM31.5725 236.832C15.3944 236.832 6.82375 228.484 6.82375 212.233V87.0121C6.82375 70.9036 15.3944 62.4136 31.5725 62.4136H218.427C234.035 62.4136 243.176 70.9036 243.176 87.0121V212.233C243.176 228.484 234.035 236.832 218.427 236.832H31.5725Z" fill="white"/>
</svg>
